HIERARCHY
ROOT Hips
{
  OFFSET 30.8253 102.999 -30.9753
  CHANNELS 6 Xposition Yposition Zposition Zrotation Xrotation Yrotation
  JOINT Spine
  {
    OFFSET -0.000355721 21.3001 -0.016921
    CHANNELS 3 Zrotation Xrotation Yrotation
    JOINT LeftArm
    {
      OFFSET 13.5181 21.3012 0
      CHANNELS 3 Zrotation Xrotation Yrotation
      JOINT LeftForeArm
      {
        OFFSET 24.5783 0 0
        CHANNELS 3 Zrotation Xrotation Yrotation
        JOINT LeftHand
        {
          OFFSET 24.5783 0 0
          CHANNELS 3 Zrotation Xrotation Yrotation
          End Site
          {
            OFFSET 7.32568 1.52588e-05 0.0169305
          }
        }
      }
    }
    JOINT Head
    {
      OFFSET 0 27.4458 -0.00489235
      CHANNELS 3 Zrotation Xrotation Yrotation
      End Site
      {
        OFFSET 0 0 0
      }
    }
    JOINT RightArm
    {
      OFFSET -13.5174 21.3012 0
      CHANNELS 3 Zrotation Xrotation Yrotation
      JOINT RightForeArm
      {
        OFFSET -24.5783 0 0
        CHANNELS 3 Zrotation Xrotation Yrotation
        JOINT RightHand
        {
          OFFSET -24.5783 0 0
          CHANNELS 3 Zrotation Xrotation Yrotation
          End Site
          {
            OFFSET -7.32568 1.52588e-05 0.0169305
          }
        }
      }
    }
  }
  JOINT RightUpLeg
  {
    OFFSET -8.44614 -9.41038 0.835684
    CHANNELS 3 Zrotation Xrotation Yrotation
    JOINT RightLeg
    {
      OFFSET 0 -40.9639 0
      CHANNELS 3 Zrotation Xrotation Yrotation
      JOINT RightFoot
      {
        OFFSET 0 -40.9639 0
        CHANNELS 3 Zrotation Xrotation Yrotation
        End Site
        {
          OFFSET 0.50614 -9.67405 14.6709
        }
      }
    }
  }
  JOINT LeftUpLeg
  {
    OFFSET 8.44614 -9.41038 0.835684
    CHANNELS 3 Zrotation Xrotation Yrotation
    JOINT LeftLeg
    {
      OFFSET 0 -40.9639 0
      CHANNELS 3 Zrotation Xrotation Yrotation
      JOINT LeftFoot
      {
        OFFSET 0 -40.9639 0
        CHANNELS 3 Zrotation Xrotation Yrotation
        End Site
        {
          OFFSET -0.50614 -9.67405 14.6709
        }
      }
    }
  }
}
MOTION
Frames:	27
Frame Time:	0.0333333
-8.36267 103.444 -12.7 0.997038 7.4528 -13.6762 -7.73612 -9.87229 2.0079 -30.5979 65.7488 -47.0695 -0.000140362 -0.000156878 -54.5685 -12.8193 8.74888 -6.65665 0.477709 -25.2371 -24.047 82.1007 22.9153 -6.63803 5.80429e-05 -0.000105398 17.2868 -1.334 -3.0515 -2.39997 -2.16549 -6.7436 16.6884 -0.00452931 2.95223 -0.011583 20.8715 -6.73679 -13.6056 2.79519 -10.0272 7.56343 -0.00151735 16.1405 0.00690645 0.833537 -11.4074 29.2968 
-7.55374 103.425 -12.4182 1.50158 7.67878 -13.7042 -8.01718 -10.0657 1.88349 -31.6121 64.7719 -45.3881 -0.000136882 -0.000161658 -53.3168 -11.8011 10.2804 -7.34272 0.250762 -24.8769 -24.0265 79.6615 22.1456 -5.78998 5.68268e-05 -0.000105769 16.6269 -2.26225 -2.2427 -2.42379 -3.06421 -7.50935 16.4043 -0.00282912 3.92594 -0.0335454 21.6536 -7.58739 -13.2013 2.09241 -9.28063 9.8687 -0.00126314 14.0946 0.00684014 -0.134433 -10.7515 26.6842 
-6.71779 103.516 -12.2216 2.24594 7.9069 -13.3813 -8.14556 -9.98675 1.75633 -32.579 63.0499 -43.9488 -0.000126432 -0.000174813 -49.759 -11.4017 12.8074 -7.39365 -0.555373 -24.8077 -24.2941 75.992 18.5416 -4.74757 5.59241e-05 -0.000106034 16.1385 -5.57767 0.0810224 -3.01834 -3.85267 -8.509 16.1672 0.00113496 5.16215 -0.0695844 19.0791 -7.27083 -13.909 0.545938 -8.7874 9.89348 -0.00100703 11.9958 0.00678232 0.581737 -9.52758 26.3063 
-5.91478 103.533 -12.1526 2.76138 7.94282 -13.3647 -8.12199 -9.71023 1.81667 -33.4272 60.5917 -42.1639 -0.000108947 -0.00019359 -44.3245 -11.7687 14.4083 -6.221 -1.33996 -24.8715 -24.361 72.0032 13.2591 -4.15027 5.58327e-05 -0.000106061 16.0891 -8.73523 0.945237 -3.37778 -4.09073 -10.3337 16.9946 -7.40642e-05 8.50623 -0.034153 17.4648 -8.52256 -14.9089 -0.840237 -8.12921 8.74993 -0.000787673 10.1715 0.00674015 1.41859 -8.76642 27.2626 
-5.20628 103.45 -12.2134 3.26135 7.92715 -13.8028 -8.12688 -9.39242 2.04518 -32.6796 57.722 -41.2435 -8.50034e-05 -0.000214379 -37.6068 -13.383 13.1417 -5.33978 -1.86983 -25.2357 -23.9772 67.9133 8.44266 -3.65036 5.54261e-05 -0.000106177 15.8696 -11.7377 -0.474976 -3.23383 -4.38761 -12.1093 18.6006 0.000111962 11.7162 -0.0294958 18.4484 -10.832 -15.5396 -1.80374 -7.92378 8.4304 -0.000694816 9.39267 0.00672437 1.34302 -8.60783 27.5672 
-4.63984 103.246 -12.3133 3.88451 8.12871 -14.257 -8.16657 -9.27328 2.24778 -28.6098 55.4241 -42.8996 -5.3418e-05 -0.000235356 -29.5721 -16.1357 11.4762 -4.50333 -2.16 -25.6284 -23.2869 63.7675 4.78872 -3.04643 5.41477e-05 -0.000106532 15.1809 -13.9463 -0.800298 -3.57734 -5.22138 -13.6387 18.721 9.74424e-05 14.1795 -0.105889 24.9501 -15.8813 -15.04 -2.68927 -8.71743 8.16964 -0.000936647 10.0389 0.00768284 1.53032 -9.03706 28.0473 
-4.26356 103.156 -12.3858 4.20931 8.38 -14.381 -8.13453 -9.24707 2.26202 -24.1832 53.1545 -44.0002 -1.83763e-05 -0.00025204 -21.3476 -18.5715 12.697 -2.15318 -2.24237 -25.8101 -22.3039 59.966 2.80838 -2.3869 5.14453e-05 -0.000107229 13.7323 -15.6899 0.448054 -3.90019 -5.56348 -14.5972 17.1184 -9.49318e-05 15.0131 -0.173983 28.64 -18.0953 -12.7883 -3.13239 -9.37792 8.09948 -0.00125115 10.4721 0.00909876 1.51491 -9.17487 28.0892 
-4.0329 103.194 -12.4337 4.16906 8.76368 -14.4568 -8.03923 -9.10959 2.25128 -20.7087 49.6487 -43.1953 1.51287e-05 -0.000262683 -13.899 -18.9696 13.6518 -0.394188 -2.19164 -26.0616 -20.9692 56.664 0.990497 -1.59103 4.82678e-05 -0.000107956 12.0403 -16.1111 1.9206 -4.35574 -5.33994 -15.0695 15.3529 0.000241413 13.6226 -0.251401 31.0163 -15.6691 -7.86376 -3.01131 -9.8946 8.62568 -0.00154292 10.5542 0.0106216 1.29246 -9.06223 27.5269 
-3.90776 103.135 -12.4694 4.1937 9.06499 -14.8048 -8.09002 -8.95382 2.24197 -19.7691 43.2978 -38.9532 3.79777e-05 -0.000267303 -8.96172 -19.6008 13.556 1.24869 -1.70303 -26.818 -19.0695 53.6255 -0.784849 -0.931496 4.55817e-05 -0.000108494 10.6183 -15.9559 2.86921 -4.74339 -5.43587 -14.778 16.2286 0.000207158 10.7277 -0.503774 36.2524 -12.7968 -3.56142 -2.84198 -10.6325 9.53438 -0.00194099 11.3163 0.0119434 1.25544 -9.29109 26.9935 
-3.85781 103.143 -12.4529 4.24737 9.32287 -15.084 -8.21903 -8.78987 2.24311 -18.6992 34.4035 -34.1512 4.95557e-05 -0.000268874 -6.48766 -20.273 12.0687 2.01053 -0.89437 -27.9448 -16.8759 50.7879 -2.7126 -0.629851 4.34753e-05 -0.000108868 9.50787 -15.9119 3.83943 -5.06049 -5.35454 -14.5826 17.842 -0.000240583 9.11138 -0.614936 37.3466 -11.7078 -3.27432 -2.80038 -10.8585 9.89672 -0.00205565 11.1986 0.0126577 1.2392 -9.20055 26.8864 
-3.84594 103.184 -12.3741 4.33212 9.5762 -14.9347 -8.31777 -8.7276 2.24635 -15.3574 25.2296 -31.1959 5.37347e-05 -0.000269316 -5.59788 -20.9582 10.9518 3.55653 0.0648862 -29.1452 -14.7185 47.8053 -3.63143 -0.99808 4.18803e-05 -0.000109123 8.66946 -15.3824 4.42896 -5.28851 -5.52905 -14.2905 18.3021 0.000311442 7.90643 -0.629787 36.4769 -10.7045 -4.80811 -2.93266 -10.7591 9.51906 -0.00186793 10.5256 0.0124293 1.15417 -8.92047 27.0617 
-3.86441 103.227 -12.1857 4.41409 9.79352 -14.4202 -8.39591 -8.67918 2.19408 -10.3132 16.8573 -29.3083 -0.0110285 -0.00026941 -5.39139 -21.1635 10.5273 4.30191 1.22112 -30.2926 -12.5926 44.8111 -4.81302 -1.76808 4.02931e-05 -0.000109353 7.837 -14.9106 5.39949 -5.61775 -5.71913 -14.3582 17.2126 -0.000119859 7.6291 -0.5152 35.431 -9.13783 -5.23516 -3.14882 -10.3383 8.80772 -0.00138406 9.40764 0.0109304 0.902608 -8.51152 27.1585 
-3.93856 103.272 -11.927 4.39134 9.93387 -13.9204 -8.50691 -8.53996 2.19229 -4.05263 9.35857 -27.8598 0.00142116 -0.000269566 -5.02764 -20.8473 10.3051 3.83844 2.79018 -31.5323 -10.189 41.953 -6.66486 -2.66401 3.87083e-05 -0.00010956 7.00741 -14.2955 5.78898 -5.84988 -5.76999 -14.1148 16.0197 0.000201724 7.35536 -0.430046 34.6375 -8.59742 -4.98679 -3.19998 -9.66149 8.57436 -0.000432225 8.11968 0.00591063 0.538955 -8.04422 26.8838 
-4.09638 103.371 -11.6564 4.10097 9.995 -13.4339 -8.72254 -8.19848 2.18645 2.34926 1.31592 -26.1337 0.000687292 -0.000269701 -4.68995 -19.6303 10.4376 4.11869 4.98564 -33.0876 -7.43432 39.4151 -8.9858 -3.43077 3.71295e-05 -0.000109742 6.18249 -14.0618 6.77711 -6.74457 -5.37074 -13.6571 15.6918 8.84075e-05 6.94527 -0.327291 33.0898 -8.19018 -5.75245 -2.90953 -8.79911 8.92463 4.27181e-05 6.80545 0.00303701 0.1793 -7.57521 26.1886 
-4.23235 103.422 -11.368 3.98724 10.132 -12.9979 -8.97263 -8.02984 2.08277 8.59826 -6.56841 -24.2253 0.000334418 -0.000269965 -3.94687 -18.6026 10.8838 4.63755 7.41348 -34.8409 -4.43044 36.8068 -10.3639 -4.02221 3.51033e-05 -0.000109943 5.12563 -13.376 7.83086 -7.21686 -5.10001 -13.4179 15.9105 0.000121807 6.74517 -0.279769 31.6419 -8.1198 -6.72194 -2.81443 -8.2804 8.95098 0.000328834 5.89149 0.000718649 0.00429284 -7.20746 25.7794 
-4.32603 103.437 -11.0644 3.9227 10.1202 -12.457 -9.23041 -7.60408 1.92569 15.1707 -13.1444 -21.9335 1.0364e-05 -0.00027015 -3.32941 -17.6672 12.0018 6.32777 10.0091 -37.1153 -1.3693 34.255 -12.0933 -4.8382 3.43105e-05 -0.000110011 4.7126 -13.019 9.14759 -7.69986 -5.09448 -13.0279 15.9853 -0.000232446 6.64757 -0.260945 31.1262 -8.40919 -7.29247 -2.88636 -7.94376 8.4112 0.000497913 5.6293 -0.00097168 0.370004 -7.1422 25.9362 
-4.34272 103.417 -10.742 4.01799 10.0906 -11.8045 -9.42634 -7.09312 1.79374 21.7674 -17.8574 -19.2678 -0.000285251 -0.000270281 -2.8131 -16.3541 13.2345 8.0715 12.6029 -39.5124 2.07987 31.6185 -13.461 -5.99079 3.43274e-05 -0.00011001 4.7214 -13.2261 10.3619 -7.76883 -5.58022 -12.6921 14.0295 -0.000256747 6.57527 -0.257339 31.9726 -7.95227 -6.17684 -3.11489 -7.96586 7.65912 0.000609021 6.05496 -0.00195693 0.406531 -7.40776 26.1439 
-4.26927 103.388 -10.4633 4.13195 10.1466 -11.021 -9.68656 -6.46915 1.72456 28.4918 -20.7598 -16.4334 -0.000552751 -0.000270377 -2.3612 -15.1238 15.3772 12.2079 16.0951 -42.0235 6.23936 29.2748 -14.6355 -7.39339 3.4363e-05 -0.000110007 4.73992 -14.1184 10.9379 -7.58634 -6.19937 -12.4748 10.255 -0.000123791 6.56389 -0.260862 32.745 -6.81626 -4.11257 -3.36111 -8.48175 6.65535 0.000674843 7.25583 -0.00215554 0.294275 -8.23235 26.6391 
-4.12966 103.378 -10.2433 4.16686 10.3587 -9.80758 -9.96408 -5.85161 1.86121 34.61 -23.0099 -14.0005 -0.000791433 -0.000270485 -1.71979 -14.119 16.8289 15.187 19.9663 -44.498 10.9542 27.3324 -15.8829 -9.32797 3.40475e-05 -0.000110033 4.57562 -15.6418 12.1698 -7.87172 -6.68122 -12.43 5.73163 2.37609e-05 6.68555 -0.274704 32.6417 -5.47763 -2.08147 -3.49201 -9.59585 5.80367 0.000641157 9.28063 -0.00147924 -0.0750061 -9.53642 26.7039 
-3.88944 103.381 -10.1102 4.14237 10.9853 -8.06299 -10.2401 -5.32413 2.09676 40.0789 -24.6519 -11.2972 -0.00100484 -0.00027051 -1.53349 -14.8504 16.8665 15.6233 24.4762 -47.373 16.4303 25.6436 -17.644 -11.38 3.24714e-05 -0.000110147 3.75536 -17.156 13.5177 -7.96522 -6.99538 -12.8511 2.22501 -1.772e-06 6.99416 -0.310812 31.6275 -4.94631 -1.63026 -3.78101 -11.0423 4.63646 4.65794e-06 11.0271 0.00208048 0.269907 -10.8264 27.2902 
-3.5869 103.306 -10.0214 3.92099 11.718 -5.80178 -10.4058 -4.89274 2.40006 44.9886 -26.1515 -8.62963 -0.00119002 -0.000270559 -1.07511 -16.2056 16.9138 15.035 29.6168 -49.95 22.7717 24.1607 -19.3666 -13.4851 3.08105e-05 -0.000110244 2.8918 -18.3234 14.614 -8.2235 -7.25687 -13.2533 0.330944 1.88125e-05 7.27617 -0.358429 31.4996 -5.58601 -2.52091 -3.95539 -13.1175 5.09353 4.19996e-05 13.7224 0.0169785 1.86643 -12.1714 28.8781 
-3.1775 103.136 -10.0465 3.44796 12.5261 -3.00376 -10.5295 -4.4606 2.59068 49.701 -26.6321 -5.69716 -0.00134907 -0.000270588 -0.680493 -17.9826 16.7934 14.9737 35.8671 -52.3341 30.3671 22.9783 -21.0165 -15.444 3.00062e-05 -0.000110282 2.47385 -19.8213 14.726 -8.36031 -7.59464 -14.2976 -1.58387 -1.72721e-05 8.838 -0.338312 32.1525 -6.9737 -3.10181 -3.68009 -15.5177 8.79639 -0.000114581 16.8219 0.0411704 4.36622 -13.4373 32.4037 
-2.66056 102.873 -10.1813 2.86387 13.5699 0.462358 -10.6394 -4.07723 2.73957 53.8269 -26.9641 -3.00075 -0.00148159 -0.000270606 -0.160007 -19.1102 16.5877 14.7457 42.8226 -54.226 38.7448 22.1677 -21.6934 -17.0905 2.97688e-05 -0.000110292 2.35054 -21.3598 15.0288 -8.18156 -8.25092 -16.0615 -4.76472 -4.18044e-05 11.4889 -0.289306 32.4808 -8.49547 -2.79132 -2.94173 -18.2082 14.8351 0.000356035 19.9782 0.0619247 6.39921 -14.297 35.9253 
-2.11678 102.554 -10.4304 1.77184 14.664 4.75696 -10.7019 -3.75975 2.94539 57.6515 -26.7752 -0.693845 -0.00159037 -0.000270607 -1.60707e-05 -20.3377 16.4322 14.6051 50.0463 -55.7224 46.9291 21.7451 -22.2418 -18.6498 2.96118e-05 -0.000110298 2.26897 -23.2738 15.0782 -7.74168 -8.73329 -17.8564 -8.08543 9.94119e-05 14.2738 -0.215234 31.6751 -10.3387 -3.30148 -1.49226 -21.0929 21.7877 -0.00452086 23.353 0.0846366 8.73343 -14.1734 40.3653 
-1.49756 102.127 -10.7938 0.187129 15.6849 9.87846 -10.804 -3.35657 3.23522 61.3235 -26.9369 1.34548 -0.00167495 -0.000270607 -1.21942e-05 -20.6566 15.9407 14.2497 56.9987 -56.8068 54.3943 21.5854 -23.1142 -20.1055 2.97426e-05 -0.000110293 2.33694 -24.7611 15.5417 -7.79122 -9.37308 -19.3338 -12.1179 2.40038e-05 16.7588 -0.182389 32.1392 -12.3551 -3.3342 0.249648 -24.0812 29.0284 -6.18132e-06 26.5531 0.122053 12.5704 -13.1747 43.6252 
-0.718794 101.629 -11.2908 -1.53668 16.3891 15.7919 -10.8895 -2.93755 3.55639 64.5836 -26.9196 3.23957 -0.00173508 -0.000270607 -1.05222e-05 -21.5684 15.2683 14.2674 63.135 -57.6829 60.7457 21.5898 -23.5383 -21.0406 2.90657e-05 -0.000110318 1.98531 -27.2179 15.9582 -7.25661 -10.69 -20.15 -17.1128 6.56761e-05 18.9631 -0.214468 34.551 -14.297 -2.72526 1.99079 -26.6971 35.6842 0.00308712 29.6989 0.140033 13.4217 -13.1556 43.1919 
0.188452 101.071 -11.9541 -3.25613 16.8109 22.3412 -10.9202 -2.60428 3.91544 67.2741 -26.6945 4.84501 -0.00177125 -0.000270607 -9.29272e-06 -22.7137 14.6596 14.4466 68.4665 -58.3959 66.1285 21.448 -23.8253 -21.7596 2.93578e-05 -0.000110308 2.13701 -29.7363 16.0136 -7.05817 -12.6406 -20.4269 -22.7088 -5.45968e-05 21.1747 -0.29297 38.0768 -16.2233 -1.72886 3.0539 -28.8968 41.3406 -0.00386406 32.3039 0.135296 11.7791 -14.1898 42.4184 
